<svg width="72" height="73" viewBox="0 0 72 73" fill="none" xmlns="http://www.w3.org/2000/svg">
<path d="M64.89 45.5C64.89 44.3 64.89 43.11 64.89 41.92V17.37C64.89 16.65 64.81 16.6 63.57 16.59H51.16C48.98 16.59 46.79 16.59 44.61 16.59C43.78 16.59 43.61 16.75 43.61 17.23C43.61 20.08 43.61 22.93 43.61 25.78C43.61 25.97 43.73 26.18 43.47 26.35C43.12 26.11 43.22 25.82 43.22 25.54C43.22 22.88 43.22 20.21 43.22 17.54C43.22 16.76 43.22 16.75 42.02 16.75H27.17C25.98 16.75 25.98 16.75 25.98 17.54C25.98 20.2 25.98 22.87 25.98 25.54C25.98 25.82 26.07 26.11 25.72 26.35C25.47 26.18 25.58 25.97 25.58 25.78C25.58 22.9 25.58 20.02 25.58 17.14C25.58 16.74 25.44 16.59 24.77 16.59C18.4 16.59 12.04 16.59 5.67 16.59C4.42 16.59 4.36 16.65 4.36 17.42V44.99C4.36 45.17 4.36 45.36 4.36 45.54C4.17 45.36 4.24 45.15 4.24 44.96C4.24 35.6733 4.24 26.38 4.24 17.08C4.23638 16.9402 4.2621 16.8013 4.3155 16.6721C4.36889 16.5429 4.44878 16.4264 4.55 16.33C7.96333 12.9233 11.3733 9.50665 14.78 6.07998C15.4443 5.45485 16.233 4.97679 17.0945 4.67698C17.956 4.37716 18.8711 4.26234 19.78 4.33998C29.68 4.33998 39.5833 4.33998 49.49 4.33998C50.399 4.26106 51.3144 4.37529 52.1761 4.67517C53.0378 4.97505 53.8264 5.4538 54.49 6.07998C57.84 9.49998 61.28 12.92 64.7 16.33C64.7969 16.4197 64.8751 16.5278 64.93 16.648C64.985 16.7681 65.0155 16.898 65.02 17.03C65.02 26.3633 65.02 35.6967 65.02 45.03C65 45.19 65.07 45.37 64.89 45.5Z" fill="#A9AEB8"/>
<path d="M65 60.78C65 46.5934 65 32.3734 65 18.12C65 16.03 65 16.02 62.9 16.02H45.18H44.4C44.2668 16.0013 44.1311 16.0148 44.0042 16.0594C43.8774 16.1041 43.7631 16.1785 43.6709 16.2765C43.5788 16.3745 43.5116 16.4932 43.4749 16.6226C43.4382 16.752 43.4331 16.8883 43.46 17.02C43.46 18.22 43.46 19.41 43.46 20.61C43.46 24.17 43.46 27.73 43.46 31.29C43.4115 31.7001 43.2576 32.0906 43.0132 32.4234C42.7689 32.7563 42.4425 33.0202 42.0659 33.1894C41.6892 33.3586 41.2751 33.4273 40.864 33.3889C40.4529 33.3504 40.0588 33.2061 39.72 32.97C38.32 32.14 36.85 31.41 35.41 30.64C35.1766 30.5029 34.9107 30.4306 34.64 30.4306C34.3693 30.4306 34.1034 30.5029 33.87 30.64C32.41 31.39 30.95 32.15 29.55 32.99C29.2101 33.2216 28.8163 33.3616 28.4065 33.3964C27.9967 33.4312 27.5848 33.3597 27.2107 33.1888C26.8367 33.0178 26.513 32.7533 26.2712 32.4206C26.0293 32.088 25.8773 31.6986 25.83 31.29C25.805 30.9271 25.805 30.5629 25.83 30.2V17.5C25.83 16.16 25.72 16.06 24.35 16.04H6.35C6.01 16.04 5.67 16.04 5.35 16.04C4.41 16.14 4.26 16.31 4.26 17.26C4.26 31.82 4.26 46.3767 4.26 60.93C4.21013 61.1843 4.21013 61.4458 4.26 61.7C4.25837 61.9852 4.30226 62.2687 4.39 62.54C4.74435 63.6089 5.43606 64.5338 6.36116 65.1758C7.28626 65.8177 8.39476 66.1421 9.52 66.1C26.25 66.1 42.98 66.1 59.72 66.1C60.03 66.1 60.34 66.1 60.65 66.1C61.7696 65.981 62.8139 65.4792 63.6064 64.6793C64.399 63.8795 64.8912 62.8307 65 61.71C65.0601 61.4029 65.0601 61.0871 65 60.78Z" fill="#E1E4EB"/>
<path d="M25.7 31.57C25.7 26.79 25.7 22.02 25.7 17.24C25.7 16.52 25.84 16.24 26.62 16.24C31.9533 16.28 37.2867 16.28 42.62 16.24C43.4 16.24 43.55 16.5 43.54 17.24C43.54 22.01 43.54 26.79 43.54 31.57C43.4714 31.948 43.3159 32.305 43.0858 32.6126C42.8557 32.9203 42.5572 33.1703 42.2139 33.3429C41.8707 33.5155 41.492 33.606 41.1078 33.6072C40.7236 33.6084 40.3444 33.5204 40 33.35C38.4 32.43 36.75 31.62 35.13 30.73C34.9689 30.6266 34.7814 30.5717 34.59 30.5717C34.3986 30.5717 34.2111 30.6266 34.05 30.73C32.4433 31.6233 30.82 32.49 29.18 33.33C28.842 33.506 28.4669 33.599 28.0858 33.6013C27.7046 33.6035 27.3285 33.515 26.9884 33.343C26.6483 33.171 26.354 32.9205 26.13 32.6121C25.9059 32.3038 25.7585 31.9466 25.7 31.57Z" fill="#3169B2"/>
<path d="M54.15 68.66C61.6887 68.66 67.8 62.5487 67.8 55.01C67.8 47.4713 61.6887 41.36 54.15 41.36C46.6113 41.36 40.5 47.4713 40.5 55.01C40.5 62.5487 46.6113 68.66 54.15 68.66Z" fill="#3169B2"/>
<path d="M52.87 58.86C52.6812 58.8532 52.4956 58.809 52.324 58.7301C52.1523 58.6511 51.998 58.5389 51.87 58.4C51.1 57.63 50.32 56.87 49.56 56.09C49.4232 55.9618 49.3141 55.807 49.2395 55.635C49.1649 55.4629 49.1264 55.2775 49.1264 55.09C49.1264 54.9025 49.1649 54.717 49.2395 54.545C49.3141 54.373 49.4232 54.2181 49.56 54.09C49.6906 53.9533 49.8486 53.8459 50.0236 53.7746C50.1987 53.7033 50.3868 53.6699 50.5757 53.6765C50.7646 53.6831 50.9499 53.7296 51.1196 53.813C51.2892 53.8963 51.4393 54.0145 51.56 54.16C51.91 54.49 52.27 54.83 52.56 55.16C52.85 55.49 52.98 55.43 53.25 55.16C54.42 53.99 55.62 52.84 56.81 51.67C56.9577 51.5028 57.1418 51.3717 57.3481 51.2868C57.5544 51.2018 57.7774 51.1653 58 51.18C58.2602 51.2107 58.5064 51.3148 58.7096 51.4802C58.9128 51.6456 59.0648 51.8655 59.1476 52.1141C59.2305 52.3627 59.2409 52.6298 59.1776 52.884C59.1142 53.1383 58.9798 53.3693 58.79 53.55C57.92 54.44 57.04 55.31 56.16 56.19C55.45 56.9 54.73 57.61 54.02 58.33C53.8768 58.4948 53.7003 58.6273 53.502 58.7186C53.3037 58.81 53.0883 58.8582 52.87 58.86Z" fill="white"/>
</svg>
