<svg width="72" height="73" viewBox="0 0 72 73" fill="none" xmlns="http://www.w3.org/2000/svg">
<path d="M40.8 41.92H45.63V62.57C45.63 63.2092 45.3761 63.8221 44.9241 64.2741C44.4722 64.7261 43.8592 64.98 43.22 64.98C42.5808 64.98 41.9678 64.7261 41.5159 64.2741C41.0639 63.8221 40.81 63.2092 40.81 62.57V41.92H40.8Z" fill="#A9AEB8"/>
<path d="M55.0186 38.254L51.431 44.0424C50.6396 45.3193 51.0332 46.9959 52.31 47.7873L59.8834 52.4811C61.1603 53.2725 62.8369 52.879 63.6283 51.6021L67.2158 45.8137C68.0072 44.5368 67.6136 42.8602 66.3368 42.0688L58.7634 37.375C57.4866 36.5836 55.8099 36.9772 55.0186 38.254Z" fill="#E1E4EB"/>
<path d="M31.35 47.66C42.1416 47.66 50.89 38.9117 50.89 28.12C50.89 17.3284 42.1416 8.58002 31.35 8.58002C20.5584 8.58002 11.81 17.3284 11.81 28.12C11.81 38.9117 20.5584 47.66 31.35 47.66Z" fill="#A9AEB8"/>
<path d="M44.9086 28.8901L38.608 39.0559C37.6828 40.5487 38.1429 42.5089 39.6357 43.4341L48.093 48.6758C49.5858 49.601 51.546 49.1409 52.4712 47.6481L58.7719 37.4823C59.6971 35.9895 59.2369 34.0293 57.7442 33.1041L49.2868 27.8624C47.794 26.9372 45.8338 27.3973 44.9086 28.8901Z" fill="#A9AEB8"/>
<path d="M36.37 12.28C36.4185 12.7751 36.4419 13.2724 36.44 13.77C36.4355 16.3659 35.8334 18.926 34.6802 21.2518C33.5271 23.5776 31.854 25.6067 29.7906 27.1819C27.7271 28.7571 25.3286 29.836 22.7811 30.3351C20.2336 30.8342 17.6053 30.7401 15.1 30.06C15.4469 33.0275 16.5898 35.846 18.4075 38.2172C20.2253 40.5883 22.6504 42.4238 25.426 43.5295C28.2016 44.6351 31.2246 44.9697 34.1748 44.4979C37.1251 44.026 39.8928 42.7653 42.1852 40.8491C44.4775 38.9329 46.2091 36.4325 47.1966 33.6127C48.1841 30.7929 48.3909 27.7585 47.795 24.8308C47.199 21.9031 45.8226 19.191 43.8114 16.9816C41.8002 14.7722 39.229 13.1476 36.37 12.28Z" fill="#3169B2"/>
<path d="M36.44 13.77C36.4419 13.2725 36.4185 12.7752 36.37 12.28C33.8952 11.5332 31.2801 11.3754 28.7334 11.8192C26.1868 12.263 23.7792 13.2961 21.7029 14.8361C19.6266 16.3761 17.9392 18.3802 16.7754 20.6884C15.6116 22.9966 15.0036 25.545 15 28.13C15.0012 28.7749 15.0379 29.4192 15.11 30.06C17.6147 30.7383 20.2418 30.831 22.7881 30.3311C25.3343 29.8311 27.7313 28.7519 29.7936 27.1769C31.8558 25.602 33.528 23.5735 34.6805 21.2487C35.833 18.9238 36.4351 16.3649 36.44 13.77Z" fill="#E1E4EB"/>
<path d="M28.81 69.56C28.5847 69.3368 28.4059 69.0713 28.2839 68.7786C28.1619 68.486 28.0991 68.1721 28.0991 67.855C28.0991 67.5379 28.1619 67.224 28.2839 66.9313C28.4059 66.6387 28.5847 66.3731 28.81 66.15L43.41 51.55L46.82 54.96L32.22 69.56H28.81Z" fill="#E1E4EB"/>
<path d="M57.85 69.56C58.074 69.3362 58.2518 69.0704 58.3731 68.7778C58.4943 68.4853 58.5567 68.1717 58.5567 67.855C58.5567 67.5383 58.4943 67.2247 58.3731 66.9321C58.2518 66.6396 58.074 66.3738 57.85 66.15L43.25 51.55L39.84 54.96L54.44 69.56H57.85Z" fill="#E1E4EB"/>
<path d="M66.0709 41.829L59.5596 52.3348C58.8642 53.4568 59.2101 54.93 60.332 55.6253C61.4539 56.3207 62.9272 55.9749 63.6225 54.8529L70.1339 44.3471C70.8292 43.2252 70.4834 41.752 69.3615 41.0566C68.2395 40.3612 66.7663 40.7071 66.0709 41.829Z" fill="#3169B2"/>
<path d="M6.61001 12.07C8.99588 12.07 10.93 10.1359 10.93 7.74999C10.93 5.36412 8.99588 3.42999 6.61001 3.42999C4.22414 3.42999 2.29001 5.36412 2.29001 7.74999C2.29001 10.1359 4.22414 12.07 6.61001 12.07Z" fill="#E1E4EB"/>
<path d="M18.21 8.20001C18.9169 8.20001 19.49 7.62694 19.49 6.92001C19.49 6.21309 18.9169 5.64001 18.21 5.64001C17.5031 5.64001 16.93 6.21309 16.93 6.92001C16.93 7.62694 17.5031 8.20001 18.21 8.20001Z" fill="#E1E4EB"/>
<path d="M2.79 27.69C3.50245 27.69 4.08 27.1124 4.08 26.4C4.08 25.6875 3.50245 25.11 2.79 25.11C2.07755 25.11 1.5 25.6875 1.5 26.4C1.5 27.1124 2.07755 27.69 2.79 27.69Z" fill="#E1E4EB"/>
<path d="M17.79 57.17C18.5024 57.17 19.08 56.5924 19.08 55.88C19.08 55.1675 18.5024 54.59 17.79 54.59C17.0776 54.59 16.5 55.1675 16.5 55.88C16.5 56.5924 17.0776 57.17 17.79 57.17Z" fill="#E1E4EB"/>
<path d="M65.19 16.7C65.8969 16.7 66.47 16.1269 66.47 15.42C66.47 14.7131 65.8969 14.14 65.19 14.14C64.4831 14.14 63.91 14.7131 63.91 15.42C63.91 16.1269 64.4831 16.7 65.19 16.7Z" fill="#E1E4EB"/>
<path d="M22.3923 26.4307C25.139 25.759 27.1711 24.4187 26.9311 23.437C26.691 22.4552 24.2697 22.2038 21.523 22.8754C18.7762 23.547 16.7441 24.8874 16.9841 25.8691C17.2242 26.8509 19.6455 27.1023 22.3923 26.4307Z" fill="white"/>
<path d="M31.2043 20.7649C32.0807 19.7051 32.4427 18.5579 32.0129 18.2024C31.583 17.8469 30.5241 18.4178 29.6477 19.4776C28.7713 20.5373 28.4093 21.6846 28.8392 22.0401C29.269 22.3956 30.3279 21.8246 31.2043 20.7649Z" fill="white"/>
<path d="M43.23 58.55C45.3176 58.55 47.01 56.8576 47.01 54.77C47.01 52.6824 45.3176 50.99 43.23 50.99C41.1424 50.99 39.45 52.6824 39.45 54.77C39.45 56.8576 41.1424 58.55 43.23 58.55Z" fill="#3169B2"/>
<path d="M40.23 31.63H39.76C39.7613 31.3341 39.704 31.041 39.5914 30.7674C39.4788 30.4938 39.3132 30.2452 39.104 30.036C38.8948 29.8268 38.6462 29.6612 38.3726 29.5485C38.099 29.4359 37.8059 29.3786 37.51 29.38V28.91C37.8059 28.9113 38.099 28.854 38.3726 28.7414C38.6462 28.6288 38.8948 28.4631 39.104 28.2539C39.3132 28.0447 39.4788 27.7962 39.5914 27.5226C39.704 27.249 39.7613 26.9558 39.76 26.66H40.23C40.23 27.2567 40.4671 27.829 40.889 28.251C41.311 28.6729 41.8833 28.91 42.48 28.91V29.38C41.8833 29.38 41.311 29.617 40.889 30.039C40.4671 30.4609 40.23 31.0332 40.23 31.63Z" fill="white"/>
<path d="M33.71 29.71H33.15C33.1491 29.9984 33.1223 30.2863 33.07 30.57C32.9867 31.0218 32.8314 31.4574 32.61 31.86C32.409 32.2742 32.1009 32.6271 31.7176 32.882C31.3343 33.137 30.8897 33.2848 30.43 33.31V34.06C31.93 34.06 33.15 35.67 33.15 37.66H33.71C33.71 35.66 34.92 34.06 36.42 34.06V33.31C34.92 33.31 33.71 31.7 33.71 29.71Z" fill="white"/>
</svg>
