<svg width="88" height="88" viewBox="0 0 88 88" fill="none" xmlns="http://www.w3.org/2000/svg">
<mask id="mask0_4280_6815" style="mask-type:luminance" maskUnits="userSpaceOnUse" x="0" y="42" width="88" height="39">
<path d="M0 67.7956V78.5523C0.192982 79.4836 0.864226 80.0374 1.84592 80.0374C3.0206 80.0374 3.75057 79.2487 3.75057 77.9733V67.7956H0ZM19.55 67.7956V77.9733C19.55 79.2487 20.2799 80.0374 21.4546 80.0374C22.6293 80.0374 23.3593 79.2487 23.3593 77.9733V67.7956H19.55ZM50.6957 67.7956V68.727C50.6957 73.5851 47.2136 77.386 42.775 77.386C37.5141 77.386 34.955 74.5836 34.955 68.8276V67.7956H31.1457V69.0458C31.1457 76.0099 34.1915 79.7857 40.2075 80.2975H42.9428C46.4081 79.9619 49.0008 78.1999 50.6369 75.0534L50.704 74.9192V78.074C50.704 79.299 51.4172 80.029 52.6087 80.029C53.8002 80.029 54.5134 79.299 54.5134 78.074V67.7872H50.704L50.6957 67.7956ZM31.1373 54.7231V64.9764H34.9466V54.7231C34.9466 53.4981 34.2334 52.7598 33.042 52.7598C31.8505 52.7598 31.1373 53.4897 31.1373 54.7231ZM50.6957 54.7231V64.9764H54.505V54.7231C54.505 53.4981 53.7918 52.7598 52.6003 52.7598C51.4088 52.7598 50.6957 53.4897 50.6957 54.7231ZM66.1762 64.8505C66.6209 59.0527 70.4386 55.3105 75.8924 55.3105C80.0542 55.3105 84.5011 57.8193 84.5011 64.8757V64.9848H66.1594V64.8589L66.1762 64.8505ZM62.283 64.9764H59.8413C58.9352 64.9764 58.3898 65.505 58.3898 66.386C58.3898 67.267 58.9352 67.7956 59.8413 67.7956H62.2662C62.7864 74.9695 67.6362 79.7186 75.0702 80.2975H78.5606C81.1281 80.1297 83.2677 79.6095 85.1892 78.6949C85.7681 78.418 86.4226 77.8978 86.2632 76.9665C86.2044 76.5721 86.0114 76.2617 85.7178 76.0771C85.3318 75.8337 84.7948 75.8086 84.1655 76.0016C83.6956 76.1442 83.2761 76.2952 82.8734 76.4379C81.3547 76.9749 80.0458 77.4363 77.0084 77.4363C70.5896 77.4363 66.3356 73.6858 66.1762 67.8795V67.7872H86.1457C87.2952 67.7872 87.9497 67.1831 88 66.0839V65.8742C87.9832 53.4058 78.6529 52.4409 75.7918 52.4409C68.299 52.4409 62.9291 57.5256 62.283 64.9764ZM0 43.6225V64.9764H3.75896V64.9177C3.75896 60.3364 6.40198 55.4112 12.2082 55.4112C16.9405 55.4112 19.55 58.4485 19.55 63.9695V64.9764H23.3593V64.0702C23.3593 56.5691 19.7933 52.4409 13.3158 52.4409C7.22426 52.4409 4.83295 56.3761 4.24561 57.5759L3.75057 58.5912V44.2014C3.75057 42.926 3.0206 42.1373 1.84592 42.1373C0.864226 42.1373 0.192982 42.6911 0 43.6225Z" fill="white"/>
</mask>
<g mask="url(#mask0_4280_6815)">
<path d="M88 42.1373H0V80.2891H88V42.1373Z" fill="url(#paint0_linear_4280_6815)"/>
</g>
<path d="M8.93422 9.96454C8.93422 8.0183 7.83527 6.91935 5.50315 6.91935C5.25987 6.91935 4.99981 6.91935 4.72297 6.93613V13.3369H5.50315C7.96111 13.3369 8.93422 11.9779 8.93422 9.96454ZM13.5985 9.89743C13.5985 13.8486 10.8133 16.1136 6.40915 16.1136H4.72297V19.8048H0V4.32717C1.61907 4.13422 3.88408 4 5.7632 4C10.6204 4 13.5985 5.55195 13.5985 9.89743ZM69.7289 9.96454C69.7289 8.0183 68.6299 6.91935 66.2978 6.91935C66.0545 6.91935 65.7945 6.91935 65.5176 6.93613V13.3369H66.2978C68.7558 13.3369 69.7289 11.9779 69.7289 9.96454ZM74.3931 9.89743C74.3931 13.8486 71.608 16.1136 67.2038 16.1136H65.5176V19.8048H60.7947V4.32717C62.4137 4.13422 64.6787 4 66.5579 4C71.4151 4 74.3931 5.55195 74.3931 9.89743ZM80.5422 8.27836C80.5422 7.43947 81.3811 7.04519 82.7401 7.04519C84.2334 7.04519 85.844 7.37235 86.9514 7.82536L86.5655 4.453C85.3323 4.19295 84.2334 4 82.2284 4C78.4114 4 75.8193 5.51001 75.8193 8.66425C75.8193 14.1087 83.2015 13.0097 83.2015 15.5348C83.2015 16.5079 82.4885 17.028 80.7436 17.028C79.1916 17.028 76.7924 16.5079 75.3662 15.7949L75.8864 19.3602C77.3125 19.8803 79.2503 20.1403 80.8107 20.1403C84.7619 20.1403 88 18.8484 88 14.956C88 9.77159 80.5506 10.7447 80.5506 8.27836M57.2294 4.32717H52.5064V19.8132H57.2294V4.32717ZM38.069 4.32717H33.346V19.8132H38.069V4.32717ZM46.2902 16.7009V4.32717H41.5672V19.8132H50.1155L50.8286 16.7009H46.2986H46.2902ZM29.8479 4.32717V19.8132H25.1249V13.7228H20.209V19.8132H15.4776V4.32717H20.209V10.4847H25.1249V4.32717H29.8479Z" fill="#0079C1"/>
<defs>
<linearGradient id="paint0_linear_4280_6815" x1="-0.0167811" y1="61.1859" x2="87.4123" y2="61.1859" gradientUnits="userSpaceOnUse">
<stop stop-color="#ED1C24"/>
<stop offset="0.06" stop-color="#EF3F22"/>
<stop offset="0.13" stop-color="#F26221"/>
<stop offset="0.17" stop-color="#F37021"/>
<stop offset="0.24" stop-color="#F6891E"/>
<stop offset="0.32" stop-color="#FAA41B"/>
<stop offset="0.37" stop-color="#FCAF1A"/>
<stop offset="0.41" stop-color="#EDB21E"/>
<stop offset="0.5" stop-color="#C7B92B"/>
<stop offset="0.61" stop-color="#8DC63F"/>
<stop offset="0.64" stop-color="#7DC14C"/>
<stop offset="0.76" stop-color="#3EB184"/>
<stop offset="0.82" stop-color="#26AB9A"/>
<stop offset="0.88" stop-color="#1B999E"/>
<stop offset="1" stop-color="#006EAB"/>
</linearGradient>
</defs>
</svg>
