<svg width="89" height="88" viewBox="0 0 89 88" fill="none" xmlns="http://www.w3.org/2000/svg">
<g clip-path="url(#clip0_4280_6840)">
<path d="M88.25 44.0078C88.25 68.3013 68.5513 88 44.2578 88C19.9642 88 0.25 68.3013 0.25 44.0078C0.25 19.7142 19.9487 0 44.2578 0C68.5668 0 88.25 19.6987 88.25 44.0078Z" fill="url(#paint0_linear_4280_6840)"/>
<path d="M33.0971 28.1123H27.4467L20.3837 41.0275L13.2742 28.1123H7.59277L17.7604 45.8396V57.3111H22.9295V45.9172L33.0971 28.1123ZM38.3904 35.3771C32.5693 35.3771 29.8373 38.4817 29.5889 42.6884H34.6028C34.727 40.8257 35.736 39.5838 38.3594 39.5838C41.3864 39.5838 42.2402 41.043 42.2402 43.2628V44.6288H37.6609C34.7115 44.6288 32.8643 44.9858 31.4827 45.8862C29.7131 47.0193 28.7351 48.6648 28.7351 51.0553C28.7351 54.1289 30.5979 57.6371 36.4035 57.6371C39.3529 57.6371 41.3243 56.6747 42.4575 54.7343V57.2801H47.223V43.3559C47.2386 38.7766 44.7238 35.3771 38.3904 35.3771ZM37.5056 53.7563C34.5252 53.7563 33.7491 52.4679 33.7491 50.9311C33.7491 50.0774 34.075 49.3633 34.7581 48.9132C35.3169 48.5561 36.2172 48.4319 37.9092 48.4319H42.2246V50.2481C42.2246 52.6231 40.455 53.7563 37.5056 53.7563ZM79.0452 50.8846H74.0313C73.9071 51.5676 73.5035 52.2506 72.8981 52.7008C72.1685 53.2286 71.1595 53.4614 69.7159 53.4614C67.7445 53.4614 66.4095 52.856 65.6023 51.7228C64.9503 50.838 64.6709 49.4254 64.6709 48.168H79.247C79.5265 44.2097 78.8434 40.8257 76.9496 38.5127C75.3352 36.5723 72.8671 35.3616 69.4831 35.3616C65.8041 35.3616 63.3825 36.6965 61.8613 38.5438C59.9209 40.9343 59.4862 44.2407 59.4862 46.6157C59.4862 48.9908 59.8898 51.7383 61.4577 53.9581C63.0255 56.1779 65.6178 57.5905 69.7314 57.5905C72.479 57.5905 74.6522 56.9386 76.189 55.8209C77.8344 54.6411 78.89 52.8715 79.0452 50.8846ZM74.0779 44.4736H64.7175C64.7641 43.2628 65.1677 41.7726 66.0059 40.8412C66.8131 39.9564 67.9773 39.4752 69.5141 39.4752C71.0509 39.4752 72.1841 39.9564 72.9447 40.8101C73.7985 41.726 74.0779 43.2938 74.0779 44.4736ZM58.5704 57.4353V52.9491C56.0712 53.0733 55.4658 52.0954 55.4658 50.1705V28.1278H50.576V50.6517C50.5915 54.9982 52.2836 57.7457 58.5704 57.4353Z" fill="black"/>
</g>
<defs>
<linearGradient id="paint0_linear_4280_6840" x1="44.087" y1="87.348" x2="44.3664" y2="10.8351" gradientUnits="userSpaceOnUse">
<stop stop-color="#FFB300"/>
<stop offset="0.05" stop-color="#FFB800"/>
<stop offset="0.33" stop-color="#FFD000"/>
<stop offset="0.5" stop-color="#FFD900"/>
<stop offset="0.67" stop-color="#FFDD09"/>
<stop offset="0.95" stop-color="#FFE921"/>
<stop offset="1" stop-color="#FFEB26"/>
</linearGradient>
<clipPath id="clip0_4280_6840">
<rect width="88" height="88" fill="white" transform="translate(0.25)"/>
</clipPath>
</defs>
</svg>
