<svg width="89" height="88" viewBox="0 0 89 88" fill="none" xmlns="http://www.w3.org/2000/svg">
<g clip-path="url(#clip0_4280_6832)">
<path d="M28.8853 19.0315C28.8853 20.7044 27.5268 22.0617 25.8551 22.0617C24.1834 22.0617 22.8236 20.7032 22.8236 19.0315C22.8236 17.3598 24.1822 16 25.8538 16C27.5255 16 28.884 17.3598 28.884 19.0315H28.8853Z" fill="#1D99D5"/>
<path d="M18.7621 30.4959C18.7621 30.9694 18.5854 31.3822 18.2306 31.7383C17.8758 32.0918 17.4427 32.2698 16.9314 32.2698C16.497 32.2698 16.0842 32.0931 15.689 31.7383L15.6322 31.679C15.5905 31.6398 15.5513 31.6108 15.5135 31.5893C15.4718 31.5704 15.4339 31.5401 15.3935 31.4997C14.0943 30.4353 12.5767 29.905 10.8431 29.905C8.71442 29.905 7.05032 30.6335 5.84834 32.0906C4.64635 33.5501 4.04662 35.617 4.04662 38.2962V57.5242C4.04662 58.1163 3.85723 58.5582 3.48477 58.8537C3.10978 59.1479 2.70701 59.2969 2.27268 59.2969C1.83835 59.2969 1.43684 59.1479 1.06185 58.8537C0.686863 58.5582 0.5 58.1151 0.5 57.5242V38.2962C0.5 36.6409 0.717166 35.0955 1.1515 33.6562C1.58583 32.2193 2.23354 30.9593 3.1022 29.8747C3.96708 28.7914 5.04154 27.9341 6.32307 27.3041C7.60207 26.674 9.11087 26.3584 10.8444 26.3584C12.0628 26.3584 13.3658 26.6147 14.7458 27.1261C16.1233 27.6387 17.2647 28.3482 18.1737 29.2548C18.5652 29.6487 18.7634 30.0628 18.7634 30.4946L18.7621 30.4959Z" fill="#535556"/>
<path d="M27.627 57.5256C27.627 58.1178 27.4389 58.5597 27.0664 58.8551C26.6902 59.1493 26.2887 59.2983 25.8543 59.2983C25.42 59.2983 25.016 59.1493 24.6435 58.8551C24.2685 58.5597 24.0817 58.1165 24.0817 57.5256V28.7221C24.0817 28.1325 24.2685 27.6893 24.6435 27.3926C25.016 27.0984 25.4213 26.9495 25.8543 26.9495C26.2874 26.9495 26.6902 27.0972 27.0664 27.3926C27.4402 27.6893 27.627 28.1325 27.627 28.7221V57.5244V57.5256Z" fill="#535556"/>
<path d="M58.3605 57.5256C58.3605 58.1178 58.1711 58.5597 57.7974 58.8551C57.4224 59.1493 57.0184 59.2983 56.5865 59.2983C56.1547 59.2983 55.7482 59.1493 55.3745 58.8551C54.9995 58.5597 54.8126 58.1165 54.8126 57.5256V37.8847C54.8126 36.7812 54.6055 35.7484 54.1901 34.7813C53.7773 33.8154 53.2053 32.9682 52.4768 32.2397C51.7483 31.5112 50.9011 30.938 49.9352 30.5264C48.9706 30.1122 47.9353 29.9064 46.8318 29.9064C45.7283 29.9064 44.6955 30.1122 43.7296 30.5264C42.7624 30.9392 41.9165 31.5112 41.188 32.2397C40.4582 32.9682 39.8875 33.8154 39.4747 34.7813C39.0605 35.7484 38.8535 36.7812 38.8535 37.8847V57.5256C38.8535 58.1178 38.6679 58.5597 38.2929 58.8551C37.9179 59.1493 37.5151 59.2983 37.082 59.2983C36.649 59.2983 36.2437 59.1493 35.87 58.8551C35.495 58.5597 35.3081 58.1165 35.3081 57.5256V37.8847C35.3081 36.309 35.6137 34.8103 36.226 33.3937C36.8358 31.9746 37.6527 30.7536 38.678 29.7284C39.7007 28.7057 40.9127 27.8888 42.313 27.2765C43.7106 26.6654 45.2182 26.3611 46.833 26.3611C48.4479 26.3611 49.9074 26.6654 51.3266 27.2765C52.7432 27.8888 53.9654 28.7045 54.9894 29.7284C56.0121 30.7536 56.8315 31.9746 57.4413 33.3937C58.0511 34.8116 58.3592 36.3103 58.3592 37.8847V57.5256H58.3605Z" fill="#535556"/>
<path d="M88.4999 59.5934C88.4999 61.2083 88.1931 62.7171 87.582 64.1147C86.9722 65.5124 86.1527 66.7245 85.13 67.7498C84.1048 68.7724 82.8839 69.5919 81.466 70.2017C80.0481 70.8115 78.5494 71.1196 76.9737 71.1196C76.1467 71.1196 75.2806 71.03 74.3728 70.8519C73.4675 70.6752 72.571 70.4088 71.6847 70.054C70.7984 69.6992 69.9714 69.2472 69.2037 68.6954C68.4348 68.1424 67.8149 67.5124 67.3401 66.8041C67.1432 66.5263 67.0459 66.1917 67.0459 65.799C67.0459 65.2864 67.2315 64.8622 67.6065 64.5301C67.9815 64.193 68.4045 64.0264 68.878 64.0264C69.1141 64.0264 69.359 64.0743 69.6153 64.1741C69.8729 64.2726 70.0989 64.4784 70.2959 64.794C70.2959 64.8332 70.3148 64.8736 70.3552 64.9127L70.5913 65.1501C71.3792 66.0149 72.3551 66.6362 73.5167 67.0099C74.677 67.3849 75.8298 67.573 76.9724 67.573C78.1151 67.573 79.1113 67.3659 80.0759 66.9518C81.0418 66.5389 81.889 65.967 82.6175 65.2385C83.346 64.5099 83.9179 63.664 84.3308 62.6969C84.7462 61.7322 84.952 60.6982 84.952 59.5947V55.5178C83.9268 56.5026 82.7248 57.2803 81.346 57.851C79.966 58.4217 78.509 58.7071 76.9724 58.7071C75.3576 58.7071 73.8513 58.4015 72.4524 57.7917C71.0521 57.1819 69.8401 56.3637 68.8174 55.3385C67.7909 54.3145 66.974 53.1037 66.3654 51.7047C65.7531 50.3058 65.4475 48.7995 65.4475 47.1821V37.8832C65.4475 36.3075 65.7531 34.8088 66.3654 33.3921C66.974 31.973 67.7921 30.7521 68.8174 29.7268C69.8401 28.7041 71.0521 27.8872 72.4524 27.2749C73.85 26.6638 75.3576 26.3595 76.9724 26.3595C78.5873 26.3595 80.0468 26.6638 81.4647 27.2749C82.8826 27.8872 84.1035 28.7029 85.1288 29.7268C86.1515 30.7521 86.9709 31.973 87.5807 33.3921C88.1906 34.81 88.4986 36.3087 88.4986 37.8832V59.5922L88.4999 59.5934ZM84.9533 37.8844C84.9533 36.7809 84.7475 35.7481 84.3321 34.781C83.9192 33.8151 83.3473 32.9679 82.6187 32.2394C81.8902 31.5109 81.043 30.9377 80.0771 30.526C79.1125 30.1119 78.0772 29.9061 76.9737 29.9061C75.8702 29.9061 74.8374 30.1119 73.8715 30.526C72.9044 30.9389 72.0584 31.5109 71.3299 32.2394C70.6014 32.9679 70.0294 33.8151 69.6153 34.781C69.2037 35.7481 68.9966 36.7809 68.9966 37.8844V47.1834C68.9966 48.2869 69.2037 49.321 69.6153 50.2869C70.0294 51.2527 70.6014 52.0999 71.3299 52.8285C72.0572 53.5595 72.9044 54.1302 73.8715 54.5418C74.8374 54.9547 75.8702 55.1617 76.9737 55.1617C78.0772 55.1617 79.1125 54.9547 80.0771 54.5418C81.043 54.1289 81.8902 53.5582 82.6187 52.8285C83.3473 52.0999 83.9192 51.2527 84.3321 50.2869C84.7475 49.3222 84.9533 48.2869 84.9533 47.1834V37.8844Z" fill="#535556"/>
</g>
<defs>
<clipPath id="clip0_4280_6832">
<rect width="88" height="88" fill="white" transform="translate(0.5)"/>
</clipPath>
</defs>
</svg>
