<svg width="89" height="88" viewBox="0 0 89 88" fill="none" xmlns="http://www.w3.org/2000/svg">
<g clip-path="url(#clip0_4280_6822)">
<path opacity="0.98" fill-rule="evenodd" clip-rule="evenodd" d="M7.5595 41.4548C5.86108 40.0937 4.13332 38.7737 2.37622 37.4918C4.63228 33.1592 8.15527 30.4312 12.9455 29.3136C17.3984 28.4629 21.464 29.3429 25.1395 31.9565C25.5766 32.2909 25.9844 32.6635 26.3598 33.0741L21.9891 37.4449C18.9178 34.931 15.565 34.5262 11.9305 36.2246C9.83903 37.439 8.38114 39.1844 7.5598 41.4548H7.5595Z" fill="#EA4334"/>
<path opacity="0.96" fill-rule="evenodd" clip-rule="evenodd" d="M45.866 36.6793C46.6462 36.6617 47.4236 36.6793 48.2039 36.7291C50.7148 40.7185 53.2375 44.6962 55.7749 48.668C55.728 44.6756 55.7104 40.6775 55.7251 36.6793H57.6552V51.9211C56.9776 51.9387 56.3 51.9211 55.6224 51.8712C52.9853 47.7293 50.3599 43.5815 47.7463 39.4249C47.6964 43.5903 47.6788 47.7557 47.6964 51.924H45.866V36.6793Z" fill="#7F868A"/>
<path opacity="0.98" fill-rule="evenodd" clip-rule="evenodd" d="M2.37583 37.4918C4.13292 38.7737 5.86068 40.0937 7.55911 41.4548C7.01937 43.385 7.01937 45.3151 7.55911 47.2453C5.83135 48.536 4.10359 49.8208 2.37583 51.1056C0.208058 46.5706 0.208058 42.0327 2.37583 37.4918Z" fill="#FABB04"/>
<path opacity="0.94" fill-rule="evenodd" clip-rule="evenodd" d="M84.0705 37.8995H86.0007V41.05H88.6437V42.7777H86.0007C85.9538 45.0863 86.0036 47.392 86.1532 49.6859C86.5258 50.4221 87.1183 50.6744 87.9309 50.4485C88.1949 50.3341 88.4647 50.2491 88.7434 50.1933C88.761 50.8035 88.7434 51.4136 88.6936 52.0238C87.1594 52.6104 85.8071 52.3406 84.6279 51.2112C84.3785 50.8005 84.2084 50.3605 84.1204 49.8912C84.0705 47.521 84.0529 45.1509 84.0705 42.7777H82.1404V41.05H84.0705V37.8995Z" fill="#7F868A"/>
<path opacity="0.95" fill-rule="evenodd" clip-rule="evenodd" d="M64.9687 40.6423C68.9522 40.7655 70.8824 42.8306 70.7592 46.8406H62.1233C62.3052 49.0729 63.5079 50.3254 65.7314 50.6012C67.1834 50.5044 68.2658 49.8267 68.9816 48.5683C69.5154 48.8441 70.0405 49.1315 70.5568 49.4307C69.1488 51.798 67.0807 52.7132 64.3586 52.1735C61.9297 51.4724 60.5569 49.8619 60.243 47.348C59.9702 45.0453 60.7006 43.1328 62.4284 41.6074C63.2057 41.0735 64.0535 40.7509 64.9687 40.6423ZM65.2738 42.3701C67.2391 42.4053 68.392 43.388 68.7293 45.3181C66.5615 45.3533 64.3938 45.3181 62.226 45.2155C62.6308 43.5904 63.6487 42.64 65.2738 42.3701Z" fill="#7F868A"/>
<path opacity="0.94" fill-rule="evenodd" clip-rule="evenodd" d="M76.2475 40.6423C78.0134 40.4898 79.4889 41.0676 80.6681 42.3701C80.7737 42.5989 80.8911 42.8189 81.0231 43.0301C80.5332 43.3527 80.0081 43.605 79.4479 43.7928C78.3068 42.3583 76.9017 42.0357 75.2297 42.8277C74.4171 43.5053 74.4171 44.1829 75.2297 44.8605C76.315 45.3005 77.4326 45.6408 78.5825 45.8755C81.1434 46.7437 81.8386 48.3864 80.6652 50.8035C79.8497 51.6601 78.8495 52.15 77.6673 52.2761C75.1651 52.5841 73.3699 51.619 72.2816 49.3808C72.795 49.0552 73.3376 48.7854 73.9067 48.5683C75.0977 50.6187 76.755 51.1086 78.8847 50.0409C79.4567 49.328 79.4215 48.6504 78.782 48.008C78.5121 47.8731 78.2393 47.7382 77.9694 47.6003C76.7286 47.2893 75.5083 46.9168 74.3115 46.4827C72.7656 45.5704 72.308 44.265 72.9387 42.5695C73.7454 41.4197 74.8454 40.7772 76.2475 40.6423Z" fill="#7F868A"/>
<path opacity="0.98" fill-rule="evenodd" clip-rule="evenodd" d="M26.1539 55.8841C24.5523 54.523 22.8949 53.2381 21.176 52.0237C22.76 50.909 23.7749 49.4042 24.2237 47.5034C21.481 47.4535 18.7383 47.4359 15.9927 47.4535V41.4577C20.8269 41.4254 25.6523 41.4577 30.4718 41.5604C31.1993 45.7082 30.5217 49.6037 28.439 53.2469C27.7966 54.2238 27.0339 55.1067 26.1539 55.8841Z" fill="#4285F3"/>
<path opacity="0.99" fill-rule="evenodd" clip-rule="evenodd" d="M7.55902 47.2483C9.79425 52.2937 13.6194 54.2092 19.0403 52.9889C19.7824 52.719 20.4923 52.3993 21.1728 52.0238C22.8918 53.2383 24.5521 54.526 26.1508 55.8842C23.8657 57.9903 21.1552 59.193 18.0224 59.4922C11.5396 60.0173 6.50887 57.5973 2.93308 52.2262C2.74534 51.8478 2.55761 51.4753 2.3728 51.1086C4.10056 49.8238 5.82832 48.536 7.55902 47.2483Z" fill="#34A753"/>
</g>
<defs>
<clipPath id="clip0_4280_6822">
<rect width="88" height="88" fill="white" transform="translate(0.75)"/>
</clipPath>
</defs>
</svg>
