<svg width="16" height="16" viewBox="0 0 16 16" fill="none" xmlns="http://www.w3.org/2000/svg">
<g clip-path="url(#clip0_4711_19657)">
<path d="M12.1445 4.8916C12.6968 4.8916 13.1445 4.44389 13.1445 3.8916C13.1445 3.33932 12.6968 2.8916 12.1445 2.8916C11.5922 2.8916 11.1445 3.33932 11.1445 3.8916C11.1445 4.44389 11.5922 4.8916 12.1445 4.8916Z" fill="black"/>
<path d="M8 12C5.794 12 4 10.206 4 8C4 5.794 5.794 4 8 4C10.206 4 12 5.794 12 8C12 10.206 10.206 12 8 12ZM8 6C6.897 6 6 6.897 6 8C6 9.103 6.897 10 8 10C9.103 10 10 9.103 10 8C10 6.897 9.103 6 8 6Z" fill="black"/>
<path d="M12 16H4C1.944 16 0 14.056 0 12V4C0 1.944 1.944 0 4 0H12C14.056 0 16 1.944 16 4V12C16 14.056 14.056 16 12 16ZM4 2C3.065 2 2 3.065 2 4V12C2 12.953 3.047 14 4 14H12C12.935 14 14 12.935 14 12V4C14 3.065 12.935 2 12 2H4Z" fill="black"/>
</g>
<defs>
<clipPath id="clip0_4711_19657">
<rect width="16" height="16" fill="white"/>
</clipPath>
</defs>
</svg>
