<svg width="16" height="16" viewBox="0 0 16 16" fill="none" xmlns="http://www.w3.org/2000/svg">
<g id="logo_instagram">
<path id="Vector" d="M1.60394 5.80781H4.41678V14.2726H1.60394V5.80781ZM3.02919 1.72743C2.06647 1.72743 1.4375 2.35946 1.4375 3.18903C1.4375 4.00153 2.04806 4.65193 2.99237 4.65193H3.01031C3.99144 4.65193 4.60244 4.00149 4.60244 3.18903C4.58403 2.35946 3.99147 1.72743 3.02919 1.72743ZM11.3231 5.60896C9.83 5.60896 9.16109 6.43021 8.78794 7.00615V5.80781H5.97425C6.0115 6.6019 5.97425 14.2726 5.97425 14.2726H8.78794V9.54524C8.78794 9.29206 8.80634 9.03981 8.88037 8.85843C9.08409 8.35299 9.54703 7.82959 10.3236 7.82959C11.3424 7.82959 11.7493 8.60618 11.7493 9.74359V14.2725H14.5625V9.41868C14.5625 6.81871 13.1749 5.60896 11.3231 5.60896Z" fill="black"/>
</g>
</svg>
